<svg xmlns="http://www.w3.org/2000/svg" class="_7759399c" viewBox="0 0 32.1 32" aria-label="Login"><g data-name="Layer 2"><path d="M15.6 32a101.4 101.4 0 0 1-12.3-.7A3.8 3.8 0 0 1 0 27.2a17.3 17.3 0 0 1 8.7-12.5l.6-.3.5.5a10 10 0 0 0 6.2 2.4h.1a8.7 8.7 0 0 0 6.1-2.4l.5-.5.6.3A17.3 17.3 0 0 1 32 27.1a3.6 3.6 0 0 1-3 4.2h-.3a111 111 0 0 1-12.8.7zM3.4 29.5a103.6 103.6 0 0 0 12.5.7 104.8 104.8 0 0 0 12.5-.7 1.8 1.8 0 0 0 1.6-2 15 15 0 0 0-7.2-10.7 10.7 10.7 0 0 1-6.9 2.4A11.6 11.6 0 0 1 9 16.8a15.2 15.2 0 0 0-7.2 10.6 2 2 0 0 0 1.6 2.1zM16 16.2a8.1 8.1 0 1 1 8-8.1 8 8 0 0 1-8 8.1zm0-14.3a6.2 6.2 0 1 0 6.2 6.2A6.2 6.2 0 0 0 16 1.9z" data-name="Layer 1"></path></g></svg>