<svg xmlns="http://www.w3.org/2000/svg" viewBox="0 0 32 32" class="d5dc16b4" aria-label="Settings button"><path fill="#fff" d="M12.3 0l-.4 3.9c-.5.2-1.1.4-1.6.7l-3-2.4-5.2 5.1 2.4 3c-.3.5-.5 1.1-.7 1.6l-3.8.4v7.3l3.9.4c.2.5.4 1.1.7 1.6l-2.4 3 5.2 5.2 3-2.4c.5.3 1.1.5 1.6.7l.4 3.9h7.3l.4-3.9c.5-.2 1.1-.4 1.6-.7l3 2.4 5.2-5.2-2.4-3c.3-.5.5-1.1.7-1.6l3.9-.4v-7.3l-3.9-.4c-.2-.5-.4-1.1-.7-1.6l2.4-3-5.2-5.2-3 2.4c-.5-.3-1.1-.5-1.6-.7L19.7 0h-7.4zM16 8.7c4 0 7.3 3.3 7.3 7.3S20 23.3 16 23.3 8.7 20 8.7 16 12 8.7 16 8.7z"></path></svg>